<svg height="100%" version="1.1" width="100%" xmlns="http://www.w3.org/2000/svg" style="overflow: hidden; position: relative; left: -0.78125px; top: -0.09375px;"><desc style="-webkit-tap-highlight-color: rgba(0, 0, 0, 0);">Created with Raphaël 2.0.1</desc><defs style="-webkit-tap-highlight-color: rgba(0, 0, 0, 0);"></defs><g transform="matrix(1.406,0,0,1.406,-0.5708,-0.5708)" stroke-width="0.7112375533428166" style=""><g></g><g><g><path fill="#3553ee" stroke="#ffffff" d="M333.4,209.9L338.09999999999997,208.8L340.59999999999997,214L342.79999999999995,221.2L342.4,241L343.7,247L343.09999999999997,250.4L339.29999999999995,263.7L338.79999999999995,268.4L336.79999999999995,273.29999999999995L334.49999999999994,276.99999999999994L334.99999999999994,278.99999999999994L334.09999999999997,281.49999999999994L328.7,289.99999999999994L322.4,287.29999999999995L319.9,284.19999999999993L322.09999999999997,253.29999999999993L320.09999999999997,246.99999999999991L320.59999999999997,243.6999999999999L318.09999999999997,242.2999999999999L312.9,240.4999999999999L310.7,235.9999999999999L311.8,233.4999999999999L314.90000000000003,230.19999999999987L313.1,227.89999999999986L311.6,223.89999999999986L309.8,222.29999999999987L309.7,218.69999999999987L307.3,210.39999999999986L300.3,214.39999999999986L300.8,217.39999999999986L299.6,219.59999999999985L295.8,220.29999999999984L296.2,226.79999999999984L292.9,228.39999999999984L291.5,225.49999999999983L289.5,220.69999999999982L287.7,220.69999999999982L285.5,217.3999999999998L284.5,211.69999999999982L286.1,205.8999999999998L285.70000000000005,201.7999999999998L281.90000000000003,200.8999999999998L276.00000000000006,204.7999999999998L272.6000000000001,206.09999999999982L270.6000000000001,202.69999999999982L269.30000000000007,197.99999999999983L267.70000000000005,197.09999999999982L268.6,192.99999999999983L267.90000000000003,188.09999999999982L274.00000000000006,187.59999999999982L277.1000000000001,188.59999999999982L279.6000000000001,191.19999999999982L287.30000000000007,193.69999999999982L289.00000000000006,190.3999999999998L289.00000000000006,186.4999999999998L296.20000000000005,187.5999999999998L301.00000000000006,193.4999999999998L306.20000000000005,194.7999999999998L305.20000000000005,199.59999999999982L306.20000000000005,202.2999999999998L310.20000000000005,205.19999999999982L315.80000000000007,206.2999999999998L321.4000000000001,205.59999999999982L323.30000000000007,204.49999999999983L324.20000000000005,213.49999999999983L325.00000000000006,214.69999999999982L329.6000000000001,210.59999999999982L333.4000000000001,209.89999999999984Z" stroke-width="0.7183499288762447" stroke-opacity="0.5" style="-webkit-tap-highlight-color: rgba(0, 0, 0, 0); stroke-opacity: 0.5; cursor: pointer;"></path><path fill="#febc48" stroke="#ffffff" d="M262.7,275.1L257.5,277.20000000000005L255.6,276.90000000000003L253.4,274.50000000000006L256.1,272.40000000000003L256.90000000000003,270.50000000000006L254.30000000000004,268.90000000000003L252.90000000000003,266.40000000000003L255.00000000000003,261.90000000000003L253.20000000000002,258.3L253.60000000000002,255.60000000000002L255.00000000000003,252.70000000000002L257.8,250.70000000000002L261.1,250.00000000000003L265.6,242.10000000000002L264.70000000000005,232.60000000000002L267.50000000000006,231.50000000000003L269.90000000000003,229.30000000000004L269.90000000000003,226.60000000000005L268.1,220.50000000000006L267.40000000000003,207.90000000000006L267.00000000000006,200.90000000000006L267.70000000000005,197.10000000000005L269.30000000000007,198.00000000000006L270.6000000000001,202.70000000000005L272.6000000000001,206.10000000000005L276.00000000000006,204.80000000000004L281.90000000000003,200.90000000000003L285.70000000000005,201.80000000000004L286.1,205.90000000000003L284.5,211.70000000000005L285.5,217.40000000000003L287.7,220.70000000000005L289.5,220.70000000000005L291.5,225.50000000000006L288.2,226.30000000000007L287.5,229.50000000000006L284.5,233.80000000000007L283.2,234.40000000000006L280.5,232.90000000000006L279.4,236.20000000000007L283.59999999999997,241.60000000000008L286.59999999999997,240.70000000000007L288.59999999999997,243.00000000000009L289.29999999999995,246.8000000000001L288.59999999999997,250.7000000000001L286.99999999999994,255.1000000000001L284.99999999999994,254.90000000000012L282.09999999999997,257.9000000000001L278.2,259.6000000000001L280.3,262.4000000000001L277.1,264.6000000000001L274.20000000000005,264.80000000000007L273.80000000000007,271.1000000000001L275.50000000000006,272.9000000000001L274.00000000000006,277.4000000000001L276.00000000000006,281.7000000000001L272.20000000000005,283.3000000000001L271.1,285.10000000000014L269,285.0000000000001L266.1,278.10000000000014L262.70000000000005,275.10000000000014Z" stroke-width="0.7183499288762447" stroke-opacity="0.5" style="-webkit-tap-highlight-color: rgba(0, 0, 0, 0); stroke-opacity: 0.5; cursor: pointer;"></path><path fill="#3553ee" stroke="#ffffff" d="M337.9,207.4L334.79999999999995,206.8L334.79999999999995,198.70000000000002L330.69999999999993,193.10000000000002L329.5999999999999,189.90000000000003L330.69999999999993,187.40000000000003L333.3999999999999,193.50000000000003L336.49999999999994,198.40000000000003L337.8999999999999,207.40000000000003ZM289,186.5L287.9,180L289.09999999999997,171.2L291.09999999999997,169.89999999999998L297.2,169.89999999999998L294.5,160.59999999999997L295.3,147.19999999999996L294.7,142.89999999999995L296.2,142.39999999999995L303.7,143.29999999999995L305.7,149.89999999999995L306.4,153.69999999999996L304.79999999999995,155.89999999999995L302.59999999999997,148.29999999999995L301.9,152.59999999999997L305.29999999999995,156.79999999999995L308.4,156.09999999999997L309.09999999999997,159.09999999999997L312.4,164.49999999999997L316.29999999999995,165.59999999999997L315.79999999999995,168.09999999999997L318.69999999999993,171.49999999999997L316.99999999999994,173.89999999999998L318.09999999999997,176.79999999999998L319.7,178.7L322.3,178.39999999999998L323.7,181.59999999999997L327.3,185.39999999999998L328.5,188.79999999999998L326.8,189.39999999999998L322.8,185.2L320.3,184.89999999999998L318.8,187.59999999999997L322.3,186.99999999999997L327.7,192.39999999999998L328.7,194.59999999999997L332.09999999999997,196.89999999999998L333.79999999999995,200.89999999999998L333.79999999999995,204.7L332.49999999999994,206.1L333.3999999999999,209.9L329.5999999999999,210.6L324.9999999999999,214.7L324.1999999999999,213.5L323.2999999999999,204.5L321.3999999999999,205.6L315.7999999999999,206.29999999999998L310.1999999999999,205.2L306.1999999999999,202.29999999999998L305.1999999999999,199.6L306.1999999999999,194.79999999999998L300.9999999999999,193.49999999999997L296.1999999999999,187.59999999999997L288.9999999999999,186.49999999999997Z" stroke-width="0.7183499288762447" stroke-opacity="0.5" style="-webkit-tap-highlight-color: rgba(0, 0, 0, 0); stroke-opacity: 0.5; cursor: pointer;"></path><path fill="#e5e548" stroke="#ffffff" d="M202.5,255.8L199.6,260.6L201.79999999999998,262.8L199.79999999999998,264.40000000000003L197.49999999999997,263.90000000000003L194.79999999999998,265.00000000000006L191.49999999999997,264.20000000000005L189.19999999999996,266.00000000000006L187.39999999999995,265.70000000000005L184.09999999999994,268.40000000000003L179.59999999999994,270.00000000000006L175.89999999999995,267.70000000000005L176.39999999999995,273.1L173.19999999999996,265L172.09999999999997,257.9L172.09999999999997,251.59999999999997L176.79999999999995,253.39999999999998L178.19999999999996,252.7L182.29999999999995,254L185.19999999999996,253.6L189.39999999999995,256.1L192.59999999999994,256.3L193.09999999999994,253.10000000000002L195.99999999999994,250.90000000000003L199.79999999999995,250.60000000000002L203.19999999999996,251.50000000000003L202.49999999999997,255.80000000000004Z" stroke-width="0.7183499288762447" stroke-opacity="0.5" style="-webkit-tap-highlight-color: rgba(0, 0, 0, 0); stroke-opacity: 0.5; cursor: pointer;"></path><path fill="#12a8ce" stroke="#ffffff" d="M216.9,297.2L219.1,299.59999999999997L221.79999999999998,299.59999999999997L226.39999999999998,301.59999999999997L223.59999999999997,303.59999999999997L225.89999999999998,306.59999999999997L225.39999999999998,308.59999999999997L222.7,308.59999999999997L219.39999999999998,305.59999999999997L219.09999999999997,307.59999999999997L221.59999999999997,312.59999999999997L218.29999999999995,316.59999999999997L216.89999999999995,319.59999999999997L217.39999999999995,321.59999999999997L221.59999999999994,324.59999999999997L217.79999999999993,329.59999999999997L219.99999999999991,330.59999999999997L216.89999999999992,333.59999999999997L217.0999999999999,335.59999999999997L214.89999999999992,334.59999999999997L205.5999999999999,332.59999999999997L200.2999999999999,329.59999999999997L193.4999999999999,322.59999999999997L191.2999999999999,318.59999999999997L187.3999999999999,310.59999999999997L185.7999999999999,302.59999999999997L184.0999999999999,299.59999999999997L183.1999999999999,295.79999999999995L193.49999999999991,299.59999999999997L196.1999999999999,302.59999999999997L199.7999999999999,302.59999999999997L204.6999999999999,301.59999999999997L209.8999999999999,305.59999999999997L209.2999999999999,300.59999999999997L213.7999999999999,297.59999999999997L216.8999999999999,297.2Z" stroke-width="0.7183499288762447" stroke-opacity="0.5" style="-webkit-tap-highlight-color: rgba(0, 0, 0, 0); stroke-opacity: 0.5; cursor: pointer;"></path><path fill="#e5e548" stroke="#ffffff" d="M201.1,227.2L200.2,231.79999999999998L197.79999999999998,233.49999999999997L197.49999999999997,235.79999999999998L200.29999999999998,240.29999999999998L198.89999999999998,245.2L199.79999999999998,250.6L195.99999999999997,250.9L193.09999999999997,253.1L192.59999999999997,256.3L189.39999999999998,256.1L185.2,253.60000000000002L182.29999999999998,254.00000000000003L178.2,252.70000000000002L176.79999999999998,253.4L172.1,251.6L173.2,247.7L169.2,233.5L173.2,237.2L172.6,232.6L170.29999999999998,230.9L170.79999999999998,229.1L170.29999999999998,225.5L175.49999999999997,225L179.79999999999998,225.5L184.89999999999998,222.5L186.79999999999998,222.3L189.2,223.9L193.7,221.8L196,221.4L201.1,227.20000000000002Z" stroke-width="0.7183499288762447" stroke-opacity="0.5" style="-webkit-tap-highlight-color: rgba(0, 0, 0, 0); stroke-opacity: 0.5; cursor: pointer;"></path><path fill="#12a8ce" stroke="#ffffff" d="M328.7,290L326.2,294L323.5,296.7L318.7,299.59999999999997L314.9,301.59999999999997L299.2,313.59999999999997L296.2,315.59999999999997L284.09999999999997,319.59999999999997L278.29999999999995,322.59999999999997L269.49999999999994,324.59999999999997L258.49999999999994,327.59999999999997L257.29999999999995,329.59999999999997L252.89999999999995,329.59999999999997L246.19999999999996,334.59999999999997L243.49999999999997,333.59999999999997L243.19999999999996,331.59999999999997L240.49999999999997,329.59999999999997L242.99999999999997,327.59999999999997L242.09999999999997,324.59999999999997L239.89999999999998,321.59999999999997L240.49999999999997,318.59999999999997L236.19999999999996,316.59999999999997L237.19999999999996,313.59999999999997L240.49999999999997,310.59999999999997L241.19999999999996,307.59999999999997L245.89999999999995,308.59999999999997L252.19999999999996,310.59999999999997L256.9,310.59999999999997L259.09999999999997,312.59999999999997L263.9,313.59999999999997L263.59999999999997,309.59999999999997L262.09999999999997,308.59999999999997L270.4,303.59999999999997L270.09999999999997,299.59999999999997L272.2,299.59999999999997L272.9,297.59999999999997L278.9,297.59999999999997L281,299.59999999999997L284.6,298.59999999999997L287.5,303.59999999999997L289.7,303.59999999999997L292.7,301.59999999999997L305.5,297.59999999999997L307.9,298.59999999999997L309.7,293.99999999999994L309.3,291.3999999999999L312.90000000000003,289.2999999999999L316.1,286.3999999999999L318.5,285.8999999999999L319.9,284.19999999999993L322.4,287.29999999999995L328.7,289.99999999999994Z" stroke-width="0.7183499288762447" stroke-opacity="0.5" style="-webkit-tap-highlight-color: rgba(0, 0, 0, 0); stroke-opacity: 0.5; cursor: pointer;"></path><path fill="#f08f42" stroke="#ffffff" d="M161.3,39.47L159.3,39.67L156.4,37.870000000000005L156.4,34.470000000000006L161.70000000000002,36.27L161.3,39.470000000000006ZM170.8,29.97L173.5,29.369999999999997L173.5,32.269999999999996L169.8,32.269999999999996L170.8,29.969999999999995ZM177.10000000000002,23.27L183.10000000000002,27.07L181.60000000000002,28.47L179.10000000000002,27.47L176.60000000000002,28.369999999999997L173.90000000000003,25.47L171.90000000000003,21.47L173.50000000000003,16.57L176.40000000000003,16.57L176.00000000000003,21.67L177.10000000000002,23.270000000000003ZM222.10000000000002,31.97L211.90000000000003,23.77L205.90000000000003,16.77L202.90000000000003,15.17L198.20000000000005,14.07L198.40000000000003,11.17L204.10000000000002,10.47L207.00000000000003,11.770000000000001L208.60000000000002,15.57L219.40000000000003,28.47L224.30000000000004,31.57L237.60000000000005,42.17L237.10000000000005,42.57L236.50000000000006,42.87L230.90000000000006,38.97L223.40000000000006,35.87L222.10000000000005,31.97ZM209.50000000000003,23.07L206.60000000000002,28.67L199.8,25.770000000000003L200,27.770000000000003L202,29.970000000000002L200.7,31.17L198,29.57L192.6,28.37L185.2,23.67L180.89999999999998,21.970000000000002L179.99999999999997,19.17L177.69999999999996,15.670000000000002L184.29999999999995,11.070000000000002L190.79999999999995,11.770000000000001L195.49999999999994,11.370000000000001L196.19999999999993,14.97L200.29999999999993,16.77L203.79999999999993,16.97L209.49999999999991,23.07Z" stroke-width="0.7183499288762447" stroke-opacity="0.5" style="-webkit-tap-highlight-color: rgba(0, 0, 0, 0); stroke-opacity: 0.5; cursor: pointer;"></path><path fill="#e5e548" stroke="#ffffff" d="M199.8,264.4L202.9,274.7L205.4,277.2L205.9,279.59999999999997L209.9,282.59999999999997L211.1,284.99999999999994L210.2,286.8999999999999L213.79999999999998,291.7999999999999L216.89999999999998,297.1999999999999L213.79999999999998,297.59999999999985L209.29999999999998,300.59999999999985L209.89999999999998,305.59999999999985L204.7,301.59999999999985L199.79999999999998,302.59999999999985L196.2,302.59999999999985L193.5,299.59999999999985L183.2,295.79999999999984L182.2,287.79999999999984L176.39999999999998,273.09999999999985L175.89999999999998,267.6999999999999L179.59999999999997,269.9999999999999L184.09999999999997,268.39999999999986L187.39999999999998,265.6999999999999L189.2,265.9999999999999L191.5,264.1999999999999L194.8,264.9999999999999L197.5,263.89999999999986L199.8,264.39999999999986Z" stroke-width="0.7183499288762447" stroke-opacity="0.5" style="-webkit-tap-highlight-color: rgba(0, 0, 0, 0); stroke-opacity: 0.5; cursor: pointer;"></path><path fill="#17581a" stroke="#ffffff" d="M232.4,210.2L234.20000000000002,212.6L239.4,216L242.5,216.2L244.3,214.2L244.10000000000002,211.1L245.70000000000002,209L250.00000000000003,212L252.50000000000003,211.7L255.20000000000002,209.5L260.90000000000003,210.2L263.00000000000006,207.89999999999998L267.40000000000003,207.89999999999998L268.1,220.49999999999997L269.90000000000003,226.59999999999997L269.90000000000003,229.29999999999995L267.50000000000006,231.49999999999994L264.70000000000005,232.59999999999994L261.20000000000005,231.99999999999994L254.70000000000005,232.19999999999993L252.70000000000005,229.09999999999994L251.10000000000005,228.79999999999993L247.70000000000005,234.39999999999992L242.30000000000004,240.69999999999993L239.20000000000005,240.29999999999993L236.90000000000003,242.09999999999994L232.00000000000003,242.09999999999994L231.50000000000003,243.69999999999993L235.30000000000004,248.89999999999992L234.20000000000005,251.79999999999993L232.40000000000003,253.59999999999994L230.00000000000003,252.19999999999993L226.30000000000004,246.59999999999994L223.70000000000005,246.39999999999995L224.50000000000006,243.39999999999995L222.50000000000006,239.39999999999995L229.50000000000006,236.29999999999995L230.80000000000007,234.19999999999996L228.60000000000008,231.69999999999996L228.80000000000007,228.99999999999997L224.80000000000007,226.09999999999997L225.00000000000006,224.49999999999997L221.40000000000006,221.19999999999996L220.30000000000007,218.69999999999996L223.60000000000008,218.49999999999997L224.30000000000007,214.89999999999998L228.20000000000007,215.79999999999998L228.20000000000007,213.99999999999997L231.50000000000009,213.09999999999997L232.4000000000001,210.19999999999996Z" stroke-width="0.7183499288762447" stroke-opacity="0.5" style="-webkit-tap-highlight-color: rgba(0, 0, 0, 0); stroke-opacity: 0.5; cursor: pointer;"></path><path fill="#d660ce" stroke="#ffffff" d="M220.3,218.7L221.4,221.2L225,224.5L224.8,226.1L228.8,229L228.60000000000002,231.7L230.8,234.2L229.5,236.29999999999998L222.5,239.39999999999998L224.5,243.39999999999998L223.7,246.39999999999998L221.2,249.79999999999998L222.1,250.89999999999998L221.6,254.2L222.29999999999998,256.5L226.6,258.8L227.5,262.1L226.4,263L223.20000000000002,262.8L219.10000000000002,261L216.70000000000002,261L214.20000000000002,262.4L209.50000000000003,261L203.80000000000004,255.1L202.50000000000003,255.79999999999998L203.20000000000002,251.49999999999997L199.8,250.59999999999997L198.9,245.19999999999996L200.3,240.29999999999995L197.5,235.79999999999995L197.8,233.49999999999994L200.20000000000002,231.79999999999995L201.10000000000002,227.19999999999996L206.50000000000003,223.19999999999996L213.30000000000004,221.39999999999995L214.40000000000003,216.39999999999995L218.30000000000004,215.79999999999995L220.30000000000004,218.69999999999996Z" stroke-width="0.7183499288762447" stroke-opacity="0.5" style="-webkit-tap-highlight-color: rgba(0, 0, 0, 0); stroke-opacity: 0.5; cursor: pointer;"></path><path fill="#f08f42" stroke="#ffffff" d="M236.5,42.87L234.2,46.169999999999995L234.2,49.96999999999999L229.7,46.86999999999999L228.39999999999998,50.66999999999999L226.99999999999997,51.36999999999999L219.99999999999997,51.36999999999999L218.49999999999997,54.96999999999999L211.89999999999998,54.76999999999999L205.39999999999998,55.46999999999999L201.2,60.36999999999999L197.79999999999998,62.56999999999999L194.39999999999998,62.669999999999995L194.89999999999998,60.769999999999996L194.89999999999998,54.56999999999999L191.7,53.169999999999995L190.1,50.46999999999999L189.5,47.36999999999999L192.4,45.46999999999999L196.9,44.169999999999995L198.70000000000002,41.87L201.60000000000002,40.57L200.00000000000003,37.87L197.10000000000002,35.37L190.8,31.769999999999996L192.4,30.269999999999996L200,34.269999999999996L204.7,35.56999999999999L207.89999999999998,38.06999999999999L207.39999999999998,41.06999999999999L209.2,42.36999999999999L213.29999999999998,41.26999999999999L220.89999999999998,38.36999999999999L227.29999999999998,39.86999999999999L232.6,42.16999999999999L236.5,42.86999999999999L236.5,42.86999999999999ZM223.4,35.87L216,35.87L210.1,30.669999999999998L206.6,28.669999999999998L209.5,23.07L213.5,27.47L222.1,31.97L223.4,35.87Z" stroke-width="0.7183499288762447" stroke-opacity="0.5" style="-webkit-tap-highlight-color: rgba(0, 0, 0, 0); stroke-opacity: 0.5; cursor: pointer;"></path><path fill="#f08f42" stroke="#ffffff" d="M175.3,75.87L173,76.97L176.8,81.27L175.5,82.36999999999999L168.3,76.16999999999999L164.9,74.76999999999998L160.20000000000002,73.66999999999999L161.3,71.66999999999999L164.9,71.66999999999999L171.9,73.86999999999999L175.3,75.86999999999999ZM213.5,83.97L215.8,85.07L218.3,90.27L218,93.27L213.5,94.97L208.8,95.47L205.70000000000002,95.07L203.4,96.36999999999999L202.1,99.27L200,99.47L199.6,101.8L201.6,103.2L204.79999999999998,107.4L196.6,109.5L192.4,109.5L188.8,107.9L189.4,112.9L189.20000000000002,120.60000000000001L187.70000000000002,120.2L183.4,118.10000000000001L177.70000000000002,116.30000000000001L180.20000000000002,110.30000000000001L180.9,102.30000000000001L178.9,97.07000000000001L179.3,90.07000000000001L178,85.57000000000001L180.7,84.67L185.6,80.37L189.2,78.17L191.29999999999998,71.17L194.39999999999998,62.67L197.79999999999998,62.57L201.2,60.37L201.79999999999998,66.17L203.39999999999998,68.47L203.2,76.07L201.39999999999998,76.57L199.99999999999997,80.36999999999999L200.89999999999998,81.57L199.79999999999998,84.66999999999999L213.49999999999997,83.96999999999998Z" stroke-width="0.7183499288762447" stroke-opacity="0.5" style="-webkit-tap-highlight-color: rgba(0, 0, 0, 0); stroke-opacity: 0.5; cursor: pointer;"></path><path fill="#17581a" stroke="#ffffff" d="M267.4,207.9L263,207.9L260.9,210.20000000000002L255.2,209.50000000000003L252.5,211.70000000000002L250,212.00000000000003L245.7,209.00000000000003L244.1,211.10000000000002L244.29999999999998,214.20000000000002L242.49999999999997,216.20000000000002L239.39999999999998,216.00000000000003L234.2,212.60000000000002L232.39999999999998,210.20000000000002L233.09999999999997,207.70000000000002L231.09999999999997,203.20000000000002L232.69999999999996,199.60000000000002L233.09999999999997,196.90000000000003L231.49999999999997,195.50000000000003L230.79999999999998,190.10000000000002L228.1,183.60000000000002L226.6,183.10000000000002L226.79999999999998,180.20000000000002L231.49999999999997,177.8L232.89999999999998,176L235.29999999999998,176.8L238.29999999999998,174.10000000000002L241.89999999999998,168.10000000000002L244.99999999999997,165.10000000000002L248.39999999999998,163.60000000000002L251.39999999999998,167.8L253.09999999999997,166.5L256.4,167.8L253.99999999999997,170.5L251.59999999999997,180.9L249.29999999999995,181.4L248.79999999999995,183.8L250.49999999999994,191.70000000000002L252.69999999999993,192.20000000000002L258.8999999999999,188.60000000000002L263.3999999999999,188.8L267.8999999999999,188.10000000000002L268.5999999999999,193.00000000000003L267.69999999999993,197.10000000000002L266.99999999999994,200.90000000000003L267.3999999999999,207.90000000000003Z" stroke-width="0.7183499288762447" stroke-opacity="0.5" style="-webkit-tap-highlight-color: rgba(0, 0, 0, 0); stroke-opacity: 0.5; cursor: pointer;"></path><path fill="#12a8ce" stroke="#ffffff" d="M241.2,307.6L240.5,310.6L237.2,313.6L236.2,316.6L240.5,318.6L239.9,321.6L242.1,324.6L243,327.6L240.5,329.6L243.2,331.6L243.5,333.6L246.2,334.6L244.79999999999998,336.6L239.89999999999998,336.6L234.49999999999997,339.6L230.19999999999996,337.6L223.89999999999995,337.6L222.09999999999994,335.6L220.69999999999993,336.6L217.09999999999994,335.6L216.89999999999995,333.6L219.99999999999994,330.6L217.79999999999995,329.6L221.59999999999997,324.6L217.39999999999998,321.6L216.89999999999998,319.6L218.29999999999998,316.6L221.6,312.6L219.1,307.6L219.4,305.6L222.70000000000002,308.6L225.4,308.6L225.9,306.6L223.6,303.6L226.4,301.6L229.70000000000002,301.6L230.4,299.6L235.4,299.6L236.70000000000002,301.6L239.60000000000002,303.6L241.20000000000002,307.6Z" stroke-width="0.7183499288762447" stroke-opacity="0.5" style="-webkit-tap-highlight-color: rgba(0, 0, 0, 0); stroke-opacity: 0.5; cursor: pointer;"></path><path fill="#febc48" stroke="#ffffff" d="M319.9,284.2L318.5,285.9L316.1,286.4L312.90000000000003,289.29999999999995L309.3,291.4L309.7,294L307.9,298.6L305.5,297.6L292.7,301.6L289.7,303.6L287.5,303.6L284.6,298.6L281,299.6L278.9,297.6L272.9,297.6L272.2,299.6L270.09999999999997,299.6L270.4,303.6L262.09999999999997,308.6L260.49999999999994,304.6L257.49999999999994,302.6L255.39999999999995,299.6L255.39999999999995,294.1L254.49999999999994,291.40000000000003L257.29999999999995,286.8L258.19999999999993,283L262.69999999999993,275.1L266.0999999999999,278.1L268.9999999999999,285L271.0999999999999,285.1L272.19999999999993,283.3L275.99999999999994,281.7L273.99999999999994,277.4L275.49999999999994,272.9L273.79999999999995,271.09999999999997L274.19999999999993,264.79999999999995L277.0999999999999,264.59999999999997L280.2999999999999,262.4L278.1999999999999,259.59999999999997L282.09999999999985,257.9L284.99999999999983,254.89999999999998L286.99999999999983,255.09999999999997L288.59999999999985,250.69999999999996L289.29999999999984,246.79999999999995L288.59999999999985,242.99999999999994L286.59999999999985,240.69999999999993L283.59999999999985,241.59999999999994L279.39999999999986,236.19999999999993L280.4999999999999,232.89999999999992L283.1999999999999,234.39999999999992L284.4999999999999,233.79999999999993L287.4999999999999,229.49999999999991L288.1999999999999,226.29999999999993L291.4999999999999,225.49999999999991L292.89999999999986,228.39999999999992L296.1999999999999,226.79999999999993L295.7999999999999,220.29999999999993L299.5999999999999,219.59999999999994L300.7999999999999,217.39999999999995L300.2999999999999,214.39999999999995L307.2999999999999,210.39999999999995L309.6999999999999,218.69999999999996L309.7999999999999,222.29999999999995L311.5999999999999,223.89999999999995L313.0999999999999,227.89999999999995L314.8999999999999,230.19999999999996L311.7999999999999,233.49999999999997L310.6999999999999,235.99999999999997L312.89999999999986,240.49999999999997L318.09999999999985,242.29999999999998L320.59999999999985,243.7L320.09999999999985,247L322.09999999999985,253.3L319.89999999999986,284.2Z" stroke-width="0.7183499288762447" stroke-opacity="0.5" style="-webkit-tap-highlight-color: rgba(0, 0, 0, 0); stroke-opacity: 0.5; cursor: pointer;"></path><path fill="#f08f42" stroke="#ffffff" d="M249.1,85.77L250.7,80.17L247.1,77.07000000000001L244.4,76.77000000000001L241.9,73.87L239.6,73.47L239.4,70.77L236.70000000000002,69.86999999999999L233.60000000000002,70.77L228.60000000000002,73.86999999999999L225.20000000000002,70.66999999999999L219.20000000000002,70.76999999999998L220.9,72.96999999999998L221.20000000000002,77.26999999999998L219.8,79.66999999999999L213.5,83.96999999999998L199.8,84.66999999999999L200.9,81.57L200,80.36999999999999L201.4,76.57L203.20000000000002,76.07L203.4,68.47L201.8,66.17L201.20000000000002,60.370000000000005L205.4,55.470000000000006L211.9,54.77L218.5,54.970000000000006L220,51.370000000000005L227,51.370000000000005L228.4,50.67L229.70000000000002,46.870000000000005L234.20000000000002,49.970000000000006L234.20000000000002,46.17000000000001L236.50000000000003,42.87000000000001L237.10000000000002,42.570000000000014L237.60000000000002,42.170000000000016L247.50000000000003,50.070000000000014L249.50000000000003,54.77000000000002L247.10000000000002,55.37000000000002L251.40000000000003,59.47000000000002L254.10000000000002,57.67000000000002L254.90000000000003,60.370000000000026L258.90000000000003,68.27000000000002L255.40000000000003,67.37000000000002L254.90000000000003,68.47000000000001L260.00000000000006,70.67000000000002L262.90000000000003,78.77000000000001L258.20000000000005,76.97000000000001L262.30000000000007,81.47000000000001L256.20000000000005,83.77000000000001L252.50000000000006,84.27000000000001L249.10000000000005,85.77000000000001Z" stroke-width="0.7183499288762447" stroke-opacity="0.5" style="-webkit-tap-highlight-color: rgba(0, 0, 0, 0); stroke-opacity: 0.5; cursor: pointer;"></path><path fill="#17581a" stroke="#ffffff" d="M223.7,246.4L226.29999999999998,246.6L229.99999999999997,252.2L232.39999999999998,253.6L234.2,251.79999999999998L235.29999999999998,248.89999999999998L231.49999999999997,243.7L231.99999999999997,242.1L236.89999999999998,242.1L239.2,240.29999999999998L242.29999999999998,240.7L247.7,234.39999999999998L251.1,228.79999999999998L252.7,229.1L254.7,232.2L261.2,232L264.7,232.6L265.59999999999997,242.1L261.09999999999997,250L257.79999999999995,250.7L254.99999999999994,252.7L253.59999999999994,255.6L253.19999999999993,258.3L254.99999999999994,261.90000000000003L252.89999999999995,266.40000000000003L247.99999999999994,268.70000000000005L238.89999999999995,269.50000000000006L227.89999999999995,267.70000000000005L226.09999999999994,266.40000000000003L226.39999999999995,263.00000000000006L227.49999999999994,262.1000000000001L226.59999999999994,258.80000000000007L222.29999999999993,256.50000000000006L221.59999999999994,254.20000000000005L222.09999999999994,250.90000000000003L221.19999999999993,249.80000000000004L223.69999999999993,246.40000000000003Z" stroke-width="0.7183499288762447" stroke-opacity="0.5" style="-webkit-tap-highlight-color: rgba(0, 0, 0, 0); stroke-opacity: 0.5; cursor: pointer;"></path><path fill="#77bb80" stroke="#ffffff" d="M187.7,120.2L188.29999999999998,123.7L186.7,126.9L182.2,131L181.29999999999998,133L182.49999999999997,135.4L184.99999999999997,145.4L188.09999999999997,144.70000000000002L191.29999999999995,145.8L193.49999999999994,148L193.69999999999993,151.4L195.69999999999993,157.9L197.79999999999993,158.9L197.29999999999993,165.1L196.19999999999993,167L197.09999999999994,169L191.49999999999994,171.7L190.59999999999994,174.39999999999998L186.09999999999994,178.39999999999998L184.49999999999994,184.7L185.19999999999993,186.5L181.39999999999992,188.1L176.5999999999999,198.2L176.5999999999999,203.89999999999998L179.5999999999999,220.7L179.7999999999999,225.5L175.4999999999999,225L170.2999999999999,225.5L166.8999999999999,199.1L168.2999999999999,193.1L167.1999999999999,190.79999999999998L166.8999999999999,186.1L164.6999999999999,175.5L161.6999999999999,165.8L159.49999999999991,156.20000000000002L160.39999999999992,152.50000000000003L159.49999999999991,146.00000000000003L160.89999999999992,145.10000000000002L163.5999999999999,140.8L166.2999999999999,142.60000000000002L164.6999999999999,146.50000000000003L163.5999999999999,147.10000000000002L163.49999999999991,150.70000000000002L161.99999999999991,155.20000000000002L162.1999999999999,157.70000000000002L164.1999999999999,159.8L162.5999999999999,163.4L165.0999999999999,165.20000000000002L168.99999999999991,165.60000000000002L170.99999999999991,164.3L169.79999999999993,161.10000000000002L167.59999999999994,158.40000000000003L170.49999999999994,153.00000000000003L169.39999999999995,150.10000000000002L168.69999999999996,145.3L170.29999999999995,142L171.59999999999997,135.9L172.29999999999995,127.60000000000001L173.69999999999996,125.60000000000001L174.39999999999995,119.2L177.69999999999996,116.3L183.39999999999995,118.1L187.69999999999996,120.19999999999999Z" stroke-width="0.7183499288762447" stroke-opacity="0.5" style="-webkit-tap-highlight-color: rgba(0, 0, 0, 0); stroke-opacity: 0.5; cursor: pointer;"></path><path fill="#d660ce" stroke="#ffffff" d="M226.4,263L226.1,266.4L227.9,267.7L238.9,269.5L248,268.7L252.9,266.4L254.3,268.9L256.90000000000003,270.59999999999997L256.1,272.4L253.40000000000003,274.5L255.60000000000002,276.9L257.5,277.2L262.7,275.09999999999997L258.2,282.99999999999994L257.3,286.79999999999995L254.5,291.4L255.4,294.09999999999997L255.4,299.59999999999997L257.5,302.59999999999997L260.5,304.59999999999997L262.1,308.59999999999997L263.6,309.59999999999997L263.90000000000003,313.59999999999997L259.1,312.59999999999997L256.90000000000003,310.59999999999997L252.20000000000005,310.59999999999997L245.90000000000003,308.59999999999997L241.20000000000005,307.59999999999997L239.60000000000005,303.59999999999997L236.70000000000005,301.59999999999997L235.40000000000003,299.59999999999997L230.40000000000003,299.59999999999997L229.70000000000005,301.59999999999997L226.40000000000003,301.59999999999997L221.80000000000004,299.59999999999997L219.10000000000005,299.59999999999997L216.90000000000006,297.2L213.80000000000007,291.8L210.20000000000007,286.90000000000003L211.10000000000008,285.00000000000006L209.9000000000001,282.6000000000001L205.9000000000001,279.6000000000001L205.4000000000001,277.2000000000001L202.9000000000001,274.7000000000001L199.8000000000001,264.4000000000001L201.8000000000001,262.80000000000007L199.6000000000001,260.6000000000001L202.5000000000001,255.80000000000007L203.80000000000013,255.10000000000008L209.5000000000001,261.00000000000006L214.2000000000001,262.40000000000003L216.7000000000001,261.00000000000006L219.1000000000001,261.00000000000006L223.2000000000001,262.80000000000007L226.4000000000001,263.00000000000006Z" stroke-width="0.7183499288762447" stroke-opacity="0.5" style="-webkit-tap-highlight-color: rgba(0, 0, 0, 0); stroke-opacity: 0.5; cursor: pointer;"></path><path fill="#3553ee" stroke="#ffffff" d="M294.7,142.9L292.4,142.9L289.9,145.8L287.7,151.4L286.3,149.9L285.90000000000003,146.20000000000002L280.00000000000006,142.9L272.20000000000005,141.3L268.6,141.70000000000002L267.20000000000005,138.8L262.30000000000007,136.3L264.70000000000005,127.60000000000001L267.70000000000005,124.7L265.40000000000003,121.7L260.00000000000006,112L261.20000000000005,107.2L259.1,102.2L259.1,98.57000000000001L261.40000000000003,94.17L258.50000000000006,91.37L252.90000000000006,87.57000000000001L248.20000000000007,88.47000000000001L249.10000000000008,85.77000000000001L252.50000000000009,84.27000000000001L256.2000000000001,83.77000000000001L262.3000000000001,81.47000000000001L265.60000000000014,85.07000000000001L266.8000000000001,82.17L269.90000000000015,85.77L272.60000000000014,90.47L276.5000000000001,92.97L278.3000000000001,97.27L281.2000000000001,99.27L283.9000000000001,104.69999999999999L288.1000000000001,109.89999999999999L287.50000000000006,112.69999999999999L289.30000000000007,116.6L286.4000000000001,116.3L285.9000000000001,117.89999999999999L287.0000000000001,120.6L286.60000000000014,124.69999999999999L292.20000000000016,125.29999999999998L292.70000000000016,122.39999999999998L295.8000000000002,121.09999999999998L297.8000000000002,121.89999999999998L299.4000000000002,123.99999999999997L301.2000000000002,131.79999999999998L299.0000000000002,135.2L302.30000000000024,136.1L303.7000000000002,143.29999999999998L296.2000000000002,142.39999999999998L294.7000000000002,142.89999999999998Z" stroke-width="0.7183499288762447" stroke-opacity="0.5" style="-webkit-tap-highlight-color: rgba(0, 0, 0, 0); stroke-opacity: 0.5; cursor: pointer;"></path><path fill="#f08f42" stroke="#ffffff" d="M249.1,85.77L248.2,88.47L243.7,89.57L241.2,91.16999999999999L234.89999999999998,91.46999999999998L235.09999999999997,93.26999999999998L237.19999999999996,94.06999999999998L239.59999999999997,98.16999999999997L237.59999999999997,99.76999999999997L233.49999999999997,104.89999999999996L229.09999999999997,108.49999999999996L226.39999999999998,108.49999999999996L223.59999999999997,106.69999999999996L220.99999999999997,107.89999999999996L217.59999999999997,111.99999999999996L216.19999999999996,115.59999999999995L213.29999999999995,118.59999999999995L209.89999999999995,117.39999999999995L208.09999999999994,113.39999999999995L205.59999999999994,112.29999999999995L204.79999999999993,107.39999999999995L201.59999999999994,103.19999999999995L199.59999999999994,101.79999999999994L199.99999999999994,99.46999999999994L202.09999999999994,99.26999999999994L203.39999999999995,96.36999999999993L205.69999999999996,95.06999999999994L208.79999999999995,95.46999999999994L213.49999999999994,94.96999999999994L217.99999999999994,93.26999999999994L218.29999999999995,90.26999999999994L215.79999999999995,85.06999999999994L213.49999999999994,83.96999999999994L219.79999999999995,79.66999999999994L221.19999999999996,77.26999999999994L220.89999999999995,72.96999999999994L219.19999999999996,70.76999999999994L225.19999999999996,70.66999999999994L228.59999999999997,73.86999999999995L233.59999999999997,70.76999999999995L236.69999999999996,69.86999999999995L239.39999999999995,70.76999999999995L239.59999999999994,73.46999999999996L241.89999999999995,73.86999999999996L244.39999999999995,76.76999999999997L247.09999999999994,77.06999999999996L250.69999999999993,80.16999999999996L249.09999999999994,85.76999999999995Z" stroke-width="0.7183499288762447" stroke-opacity="0.5" style="-webkit-tap-highlight-color: rgba(0, 0, 0, 0); stroke-opacity: 0.5; cursor: pointer;"></path><path fill="#77bb80" stroke="#ffffff" d="M226.8,180.2L226.60000000000002,183.1L228.10000000000002,183.6L230.8,190.1L231.5,195.5L233.1,196.9L232.7,199.6L231.1,203.2L233.1,207.7L232.4,210.2L231.5,213.1L228.2,214L228.2,215.8L224.29999999999998,214.9L223.6,218.5L220.29999999999998,218.7L218.29999999999998,215.79999999999998L214.39999999999998,216.39999999999998L213.29999999999998,221.39999999999998L206.49999999999997,223.2L201.09999999999997,227.2L195.99999999999997,221.39999999999998L193.69999999999996,221.79999999999998L189.19999999999996,223.89999999999998L186.79999999999995,222.29999999999998L184.89999999999995,222.49999999999997L179.79999999999995,225.49999999999997L179.59999999999997,220.69999999999996L176.59999999999997,203.89999999999995L176.59999999999997,198.19999999999996L181.39999999999998,188.09999999999997L185.2,186.49999999999997L184.5,184.69999999999996L186.1,178.39999999999995L190.6,174.39999999999995L191.5,171.69999999999996L197.1,168.99999999999997L196.2,166.99999999999997L197.29999999999998,165.09999999999997L197.79999999999998,158.89999999999998L195.7,157.89999999999998L193.7,151.39999999999998L193.5,147.99999999999997L207.5,154.59999999999997L211.9,155.89999999999998L215.8,159.29999999999998L220.10000000000002,161.29999999999998L220.3,168.1L222.8,168.7L225,175.1L224.6,178.2L226.79999999999998,180.2Z" stroke-width="0.7183499288762447" stroke-opacity="0.5" style="-webkit-tap-highlight-color: rgba(0, 0, 0, 0); stroke-opacity: 0.5; cursor: pointer;"></path><path fill="#a6343c" stroke="#ffffff" d="M262.3,136.3L260.3,140.4L252.3,141.5L249.10000000000002,151.6L248.40000000000003,157.7L250.20000000000005,159.1L248.60000000000005,161.29999999999998L248.40000000000006,163.6L245.00000000000006,165.1L241.90000000000006,168.1L238.30000000000007,174.1L235.30000000000007,176.79999999999998L232.90000000000006,175.99999999999997L231.50000000000006,177.79999999999998L226.80000000000007,180.2L224.60000000000008,178.2L225.00000000000009,175.1L222.8000000000001,168.7L220.3000000000001,168.1L220.1000000000001,161.29999999999998L215.8000000000001,159.29999999999998L211.9000000000001,155.89999999999998L207.50000000000009,154.59999999999997L193.50000000000009,147.99999999999997L191.3000000000001,145.79999999999998L188.1000000000001,144.7L185.0000000000001,145.39999999999998L182.5000000000001,135.39999999999998L181.30000000000013,132.99999999999997L182.20000000000013,130.99999999999997L186.70000000000013,126.89999999999998L188.30000000000013,123.69999999999997L187.70000000000013,120.19999999999997L189.20000000000013,120.59999999999998L189.40000000000012,112.89999999999998L188.80000000000013,107.89999999999998L192.40000000000012,109.49999999999997L196.6000000000001,109.49999999999997L204.8000000000001,107.39999999999998L205.6000000000001,112.29999999999998L208.1000000000001,113.39999999999998L209.90000000000012,117.39999999999998L213.30000000000013,118.59999999999998L216.20000000000013,115.59999999999998L217.60000000000014,111.99999999999999L221.00000000000014,107.89999999999999L223.60000000000014,106.69999999999999L226.40000000000015,108.49999999999999L229.10000000000014,108.49999999999999L233.50000000000014,104.89999999999999L237.60000000000014,99.77L239.60000000000014,98.17L237.20000000000013,94.07000000000001L235.10000000000014,93.27000000000001L234.90000000000015,91.47000000000001L241.20000000000016,91.17000000000002L243.70000000000016,89.57000000000002L248.20000000000016,88.47000000000003L252.90000000000015,87.57000000000002L258.50000000000017,91.37000000000002L261.40000000000015,94.17000000000002L259.10000000000014,98.57000000000002L259.10000000000014,102.20000000000002L261.20000000000016,107.20000000000002L260.00000000000017,112.00000000000001L265.40000000000015,121.70000000000002L267.70000000000016,124.70000000000002L264.70000000000016,127.60000000000002L262.3000000000002,136.3Z" stroke-width="0.7183499288762447" stroke-opacity="0.5" style="-webkit-tap-highlight-color: rgba(0, 0, 0, 0); stroke-opacity: 0.5; cursor: pointer;"></path><path fill="#a6343c" stroke="#ffffff" d="M289,186.5L289,190.4L287.3,193.70000000000002L279.6,191.20000000000002L277.1,188.60000000000002L274,187.60000000000002L267.9,188.10000000000002L263.4,188.8L258.9,188.60000000000002L252.7,192.20000000000002L250.5,191.70000000000002L248.8,183.8L249.3,181.4L251.60000000000002,180.9L254.00000000000003,170.5L256.40000000000003,167.8L253.10000000000002,166.5L251.40000000000003,167.8L248.40000000000003,163.60000000000002L248.60000000000002,161.3L250.20000000000002,159.10000000000002L248.4,157.70000000000002L249.1,151.60000000000002L252.29999999999998,141.50000000000003L260.29999999999995,140.40000000000003L262.29999999999995,136.30000000000004L267.19999999999993,138.80000000000004L268.5999999999999,141.70000000000005L272.19999999999993,141.30000000000004L279.99999999999994,142.90000000000003L285.8999999999999,146.20000000000005L286.2999999999999,149.90000000000003L287.6999999999999,151.40000000000003L289.89999999999986,145.80000000000004L292.39999999999986,142.90000000000003L294.6999999999999,142.90000000000003L295.2999999999999,147.20000000000005L294.4999999999999,160.60000000000005L297.1999999999999,169.90000000000006L291.09999999999985,169.90000000000006L289.09999999999985,171.20000000000007L287.89999999999986,180.00000000000009L288.9999999999999,186.50000000000009Z" stroke-width="0.7183499288762447" stroke-opacity="0.5" style="-webkit-tap-highlight-color: rgba(0, 0, 0, 0); stroke-opacity: 0.5; cursor: pointer;"></path><text x="0" y="0" text-anchor="middle" font="10px &quot;Arial&quot;" stroke="#000000" fill="#ffffff" style="-webkit-tap-highlight-color: rgba(0, 0, 0, 0); text-anchor: middle; font: bold 10px Arial; cursor: pointer; stroke-linejoin: round; stroke-linecap: round; stroke-opacity: 0.5;" font-weight="bold" font-size="10px" stroke-linejoin="round" stroke-linecap="round" stroke-width="1.5" stroke-opacity="0.5"><tspan dy="4" style="-webkit-tap-highlight-color: rgba(0, 0, 0, 0);"></tspan></text><text x="0" y="0" text-anchor="middle" font="10px &quot;Arial&quot;" stroke="none" fill="#ffffff" style="-webkit-tap-highlight-color: rgba(0, 0, 0, 0); text-anchor: middle; font: bold 10px Arial; cursor: pointer; stroke-linejoin: round; stroke-linecap: round;" font-weight="bold" font-size="10px" stroke-linejoin="round" stroke-linecap="round" transform="matrix(1,0,0,1,0,0)"><tspan dy="4" style="-webkit-tap-highlight-color: rgba(0, 0, 0, 0);"></tspan></text><text x="0" y="0" text-anchor="middle" font="10px &quot;Arial&quot;" stroke="#000000" fill="#000000" style="-webkit-tap-highlight-color: rgba(0, 0, 0, 0); text-anchor: middle; font: bold 10px Arial; cursor: pointer; stroke-linejoin: round; stroke-linecap: round; stroke-opacity: 0.5;" font-weight="bold" font-size="10px" stroke-linejoin="round" stroke-linecap="round" stroke-width="1.5" stroke-opacity="0.5"><tspan dy="4" style="-webkit-tap-highlight-color: rgba(0, 0, 0, 0);"></tspan></text><text x="0" y="0" text-anchor="middle" font="10px &quot;Arial&quot;" stroke="none" fill="#ffffff" style="-webkit-tap-highlight-color: rgba(0, 0, 0, 0); text-anchor: middle; font: bold 10px Arial; cursor: pointer; stroke-linejoin: round; stroke-linecap: round;" font-weight="bold" font-size="10px" stroke-linejoin="round" stroke-linecap="round" transform="matrix(1,0,0,1,0,0)"><tspan dy="4" style="-webkit-tap-highlight-color: rgba(0, 0, 0, 0);"></tspan></text><text x="0" y="0" text-anchor="middle" font="10px &quot;Arial&quot;" stroke="#000000" fill="#ffffff" style="-webkit-tap-highlight-color: rgba(0, 0, 0, 0); text-anchor: middle; font: bold 10px Arial; cursor: pointer; stroke-linejoin: round; stroke-linecap: round; stroke-opacity: 0.5;" font-weight="bold" font-size="10px" stroke-linejoin="round" stroke-linecap="round" stroke-width="1.5" stroke-opacity="0.5"><tspan dy="4" style="-webkit-tap-highlight-color: rgba(0, 0, 0, 0);"></tspan></text><text x="0" y="0" text-anchor="middle" font="10px &quot;Arial&quot;" stroke="none" fill="#ffffff" style="-webkit-tap-highlight-color: rgba(0, 0, 0, 0); text-anchor: middle; font: bold 10px Arial; cursor: pointer; stroke-linejoin: round; stroke-linecap: round;" font-weight="bold" font-size="10px" stroke-linejoin="round" stroke-linecap="round" transform="matrix(1,0,0,1,0,0)"><tspan dy="4" style="-webkit-tap-highlight-color: rgba(0, 0, 0, 0);"></tspan></text><text x="0" y="0" text-anchor="middle" font="10px &quot;Arial&quot;" stroke="#000000" fill="#ffffff" style="-webkit-tap-highlight-color: rgba(0, 0, 0, 0); text-anchor: middle; font: bold 10px Arial; cursor: pointer; stroke-linejoin: round; stroke-linecap: round; stroke-opacity: 0.5;" font-weight="bold" font-size="10px" stroke-linejoin="round" stroke-linecap="round" stroke-width="1.5" stroke-opacity="0.5"><tspan dy="4" style="-webkit-tap-highlight-color: rgba(0, 0, 0, 0);"></tspan></text><text x="0" y="0" text-anchor="middle" font="10px &quot;Arial&quot;" stroke="none" fill="#ffffff" style="-webkit-tap-highlight-color: rgba(0, 0, 0, 0); text-anchor: middle; font: bold 10px Arial; cursor: pointer; stroke-linejoin: round; stroke-linecap: round;" font-weight="bold" font-size="10px" stroke-linejoin="round" stroke-linecap="round" transform="matrix(1,0,0,1,0,0)"><tspan dy="4" style="-webkit-tap-highlight-color: rgba(0, 0, 0, 0);"></tspan></text><text x="0" y="0" text-anchor="middle" font="10px &quot;Arial&quot;" stroke="#000000" fill="#ffffff" style="-webkit-tap-highlight-color: rgba(0, 0, 0, 0); text-anchor: middle; font: bold 10px Arial; cursor: pointer; stroke-linejoin: round; stroke-linecap: round; stroke-opacity: 0.5;" font-weight="bold" font-size="10px" stroke-linejoin="round" stroke-linecap="round" stroke-width="1.5" stroke-opacity="0.5"><tspan dy="4" style="-webkit-tap-highlight-color: rgba(0, 0, 0, 0);"></tspan></text><text x="0" y="0" text-anchor="middle" font="10px &quot;Arial&quot;" stroke="none" fill="#ffffff" style="-webkit-tap-highlight-color: rgba(0, 0, 0, 0); text-anchor: middle; font: bold 10px Arial; cursor: pointer; stroke-linejoin: round; stroke-linecap: round;" font-weight="bold" font-size="10px" stroke-linejoin="round" stroke-linecap="round" transform="matrix(1,0,0,1,0,0)"><tspan dy="4" style="-webkit-tap-highlight-color: rgba(0, 0, 0, 0);"></tspan></text><text x="0" y="0" text-anchor="middle" font="10px &quot;Arial&quot;" stroke="#000000" fill="#ffffff" style="-webkit-tap-highlight-color: rgba(0, 0, 0, 0); text-anchor: middle; font: bold 10px Arial; cursor: pointer; stroke-linejoin: round; stroke-linecap: round; stroke-opacity: 0.5;" font-weight="bold" font-size="10px" stroke-linejoin="round" stroke-linecap="round" stroke-width="1.5" stroke-opacity="0.5"><tspan dy="4" style="-webkit-tap-highlight-color: rgba(0, 0, 0, 0);"></tspan></text><text x="0" y="0" text-anchor="middle" font="10px &quot;Arial&quot;" stroke="none" fill="#ffffff" style="-webkit-tap-highlight-color: rgba(0, 0, 0, 0); text-anchor: middle; font: bold 10px Arial; cursor: pointer; stroke-linejoin: round; stroke-linecap: round;" font-weight="bold" font-size="10px" stroke-linejoin="round" stroke-linecap="round" transform="matrix(1,0,0,1,0,0)"><tspan dy="4" style="-webkit-tap-highlight-color: rgba(0, 0, 0, 0);"></tspan></text><text x="0" y="0" text-anchor="middle" font="10px &quot;Arial&quot;" stroke="#000000" fill="#ffffff" style="-webkit-tap-highlight-color: rgba(0, 0, 0, 0); text-anchor: middle; font: bold 10px Arial; cursor: pointer; stroke-linejoin: round; stroke-linecap: round; stroke-opacity: 0.5;" font-weight="bold" font-size="10px" stroke-linejoin="round" stroke-linecap="round" stroke-width="1.5" stroke-opacity="0.5"><tspan dy="4" style="-webkit-tap-highlight-color: rgba(0, 0, 0, 0);"></tspan></text><text x="0" y="0" text-anchor="middle" font="10px &quot;Arial&quot;" stroke="none" fill="#ffffff" style="-webkit-tap-highlight-color: rgba(0, 0, 0, 0); text-anchor: middle; font: bold 10px Arial; cursor: pointer; stroke-linejoin: round; stroke-linecap: round;" font-weight="bold" font-size="10px" stroke-linejoin="round" stroke-linecap="round" transform="matrix(1,0,0,1,0,0)"><tspan dy="4" style="-webkit-tap-highlight-color: rgba(0, 0, 0, 0);"></tspan></text><text x="0" y="0" text-anchor="middle" font="10px &quot;Arial&quot;" stroke="#000000" fill="#ffffff" style="-webkit-tap-highlight-color: rgba(0, 0, 0, 0); text-anchor: middle; font: bold 10px Arial; cursor: pointer; stroke-linejoin: round; stroke-linecap: round; stroke-opacity: 0.5;" font-weight="bold" font-size="10px" stroke-linejoin="round" stroke-linecap="round" stroke-width="1.5" stroke-opacity="0.5"><tspan dy="4" style="-webkit-tap-highlight-color: rgba(0, 0, 0, 0);"></tspan></text><text x="0" y="0" text-anchor="middle" font="10px &quot;Arial&quot;" stroke="none" fill="#ffffff" style="-webkit-tap-highlight-color: rgba(0, 0, 0, 0); text-anchor: middle; font: bold 10px Arial; cursor: pointer; stroke-linejoin: round; stroke-linecap: round;" font-weight="bold" font-size="10px" stroke-linejoin="round" stroke-linecap="round" transform="matrix(1,0,0,1,0,0)"><tspan dy="4" style="-webkit-tap-highlight-color: rgba(0, 0, 0, 0);"></tspan></text><text x="0" y="0" text-anchor="middle" font="10px &quot;Arial&quot;" stroke="#000000" fill="#ffffff" style="-webkit-tap-highlight-color: rgba(0, 0, 0, 0); text-anchor: middle; font: bold 10px Arial; cursor: pointer; stroke-linejoin: round; stroke-linecap: round; stroke-opacity: 0.5;" font-weight="bold" font-size="10px" stroke-linejoin="round" stroke-linecap="round" stroke-width="1.5" stroke-opacity="0.5"><tspan dy="4" style="-webkit-tap-highlight-color: rgba(0, 0, 0, 0);"></tspan></text><text x="0" y="0" text-anchor="middle" font="10px &quot;Arial&quot;" stroke="none" fill="#ffffff" style="-webkit-tap-highlight-color: rgba(0, 0, 0, 0); text-anchor: middle; font: bold 10px Arial; cursor: pointer; stroke-linejoin: round; stroke-linecap: round;" font-weight="bold" font-size="10px" stroke-linejoin="round" stroke-linecap="round" transform="matrix(1,0,0,1,0,0)"><tspan dy="4" style="-webkit-tap-highlight-color: rgba(0, 0, 0, 0);"></tspan></text><text x="0" y="0" text-anchor="middle" font="10px &quot;Arial&quot;" stroke="#000000" fill="#ffffff" style="-webkit-tap-highlight-color: rgba(0, 0, 0, 0); text-anchor: middle; font: bold 10px Arial; cursor: pointer; stroke-linejoin: round; stroke-linecap: round; stroke-opacity: 0.5;" font-weight="bold" font-size="10px" stroke-linejoin="round" stroke-linecap="round" stroke-width="1.5" stroke-opacity="0.5"><tspan dy="4" style="-webkit-tap-highlight-color: rgba(0, 0, 0, 0);"></tspan></text><text x="0" y="0" text-anchor="middle" font="10px &quot;Arial&quot;" stroke="none" fill="#ffffff" style="-webkit-tap-highlight-color: rgba(0, 0, 0, 0); text-anchor: middle; font: bold 10px Arial; cursor: pointer; stroke-linejoin: round; stroke-linecap: round;" font-weight="bold" font-size="10px" stroke-linejoin="round" stroke-linecap="round" transform="matrix(1,0,0,1,0,0)"><tspan dy="4" style="-webkit-tap-highlight-color: rgba(0, 0, 0, 0);"></tspan></text><text x="0" y="0" text-anchor="middle" font="10px &quot;Arial&quot;" stroke="#000000" fill="#ffffff" style="-webkit-tap-highlight-color: rgba(0, 0, 0, 0); text-anchor: middle; font: bold 10px Arial; cursor: pointer; stroke-linejoin: round; stroke-linecap: round; stroke-opacity: 0.5;" font-weight="bold" font-size="10px" stroke-linejoin="round" stroke-linecap="round" stroke-width="1.5" stroke-opacity="0.5"><tspan dy="4" style="-webkit-tap-highlight-color: rgba(0, 0, 0, 0);"></tspan></text><text x="0" y="0" text-anchor="middle" font="10px &quot;Arial&quot;" stroke="none" fill="#ffffff" style="-webkit-tap-highlight-color: rgba(0, 0, 0, 0); text-anchor: middle; font: bold 10px Arial; cursor: pointer; stroke-linejoin: round; stroke-linecap: round;" font-weight="bold" font-size="10px" stroke-linejoin="round" stroke-linecap="round" transform="matrix(1,0,0,1,0,0)"><tspan dy="4" style="-webkit-tap-highlight-color: rgba(0, 0, 0, 0);"></tspan></text><text x="0" y="0" text-anchor="middle" font="10px &quot;Arial&quot;" stroke="#000000" fill="#ffffff" style="-webkit-tap-highlight-color: rgba(0, 0, 0, 0); text-anchor: middle; font: bold 10px Arial; cursor: pointer; stroke-linejoin: round; stroke-linecap: round; stroke-opacity: 0.5;" font-weight="bold" font-size="10px" stroke-linejoin="round" stroke-linecap="round" stroke-width="1.5" stroke-opacity="0.5"><tspan dy="4" style="-webkit-tap-highlight-color: rgba(0, 0, 0, 0);"></tspan></text><text x="0" y="0" text-anchor="middle" font="10px &quot;Arial&quot;" stroke="none" fill="#ffffff" style="-webkit-tap-highlight-color: rgba(0, 0, 0, 0); text-anchor: middle; font: bold 10px Arial; cursor: pointer; stroke-linejoin: round; stroke-linecap: round;" font-weight="bold" font-size="10px" stroke-linejoin="round" stroke-linecap="round" transform="matrix(1,0,0,1,0,0)"><tspan dy="4" style="-webkit-tap-highlight-color: rgba(0, 0, 0, 0);"></tspan></text><text x="0" y="0" text-anchor="middle" font="10px &quot;Arial&quot;" stroke="#000000" fill="#ffffff" style="-webkit-tap-highlight-color: rgba(0, 0, 0, 0); text-anchor: middle; font: bold 10px Arial; cursor: pointer; stroke-linejoin: round; stroke-linecap: round; stroke-opacity: 0.5;" font-weight="bold" font-size="10px" stroke-linejoin="round" stroke-linecap="round" stroke-width="1.5" stroke-opacity="0.5"><tspan dy="4" style="-webkit-tap-highlight-color: rgba(0, 0, 0, 0);"></tspan></text><text x="0" y="0" text-anchor="middle" font="10px &quot;Arial&quot;" stroke="none" fill="#ffffff" style="-webkit-tap-highlight-color: rgba(0, 0, 0, 0); text-anchor: middle; font: bold 10px Arial; cursor: pointer; stroke-linejoin: round; stroke-linecap: round;" font-weight="bold" font-size="10px" stroke-linejoin="round" stroke-linecap="round" transform="matrix(1,0,0,1,0,0)"><tspan dy="4" style="-webkit-tap-highlight-color: rgba(0, 0, 0, 0);"></tspan></text><text x="0" y="0" text-anchor="middle" font="10px &quot;Arial&quot;" stroke="#000000" fill="#000000" style="-webkit-tap-highlight-color: rgba(0, 0, 0, 0); text-anchor: middle; font: bold 10px Arial; cursor: pointer; stroke-linejoin: round; stroke-linecap: round; stroke-opacity: 0.5;" font-weight="bold" font-size="10px" stroke-linejoin="round" stroke-linecap="round" stroke-width="1.5" stroke-opacity="0.5"><tspan dy="4" style="-webkit-tap-highlight-color: rgba(0, 0, 0, 0);"></tspan></text><text x="0" y="0" text-anchor="middle" font="10px &quot;Arial&quot;" stroke="none" fill="#ffffff" style="-webkit-tap-highlight-color: rgba(0, 0, 0, 0); text-anchor: middle; font: bold 10px Arial; cursor: pointer; stroke-linejoin: round; stroke-linecap: round;" font-weight="bold" font-size="10px" stroke-linejoin="round" stroke-linecap="round" transform="matrix(1,0,0,1,0,0)"><tspan dy="4" style="-webkit-tap-highlight-color: rgba(0, 0, 0, 0);"></tspan></text><text x="0" y="0" text-anchor="middle" font="10px &quot;Arial&quot;" stroke="#000000" fill="#ffffff" style="-webkit-tap-highlight-color: rgba(0, 0, 0, 0); text-anchor: middle; font: bold 10px Arial; cursor: pointer; stroke-linejoin: round; stroke-linecap: round; stroke-opacity: 0.5;" font-weight="bold" font-size="10px" stroke-linejoin="round" stroke-linecap="round" stroke-width="1.5" stroke-opacity="0.5"><tspan dy="4" style="-webkit-tap-highlight-color: rgba(0, 0, 0, 0);"></tspan></text><text x="0" y="0" text-anchor="middle" font="10px &quot;Arial&quot;" stroke="none" fill="#ffffff" style="-webkit-tap-highlight-color: rgba(0, 0, 0, 0); text-anchor: middle; font: bold 10px Arial; cursor: pointer; stroke-linejoin: round; stroke-linecap: round;" font-weight="bold" font-size="10px" stroke-linejoin="round" stroke-linecap="round" transform="matrix(1,0,0,1,0,0)"><tspan dy="4" style="-webkit-tap-highlight-color: rgba(0, 0, 0, 0);"></tspan></text><text x="0" y="0" text-anchor="middle" font="10px &quot;Arial&quot;" stroke="#000000" fill="#ffffff" style="-webkit-tap-highlight-color: rgba(0, 0, 0, 0); text-anchor: middle; font: bold 10px Arial; cursor: pointer; stroke-linejoin: round; stroke-linecap: round; stroke-opacity: 0.5;" font-weight="bold" font-size="10px" stroke-linejoin="round" stroke-linecap="round" stroke-width="1.5" stroke-opacity="0.5"><tspan dy="4" style="-webkit-tap-highlight-color: rgba(0, 0, 0, 0);"></tspan></text><text x="0" y="0" text-anchor="middle" font="10px &quot;Arial&quot;" stroke="none" fill="#ffffff" style="-webkit-tap-highlight-color: rgba(0, 0, 0, 0); text-anchor: middle; font: bold 10px Arial; cursor: pointer; stroke-linejoin: round; stroke-linecap: round;" font-weight="bold" font-size="10px" stroke-linejoin="round" stroke-linecap="round" transform="matrix(1,0,0,1,0,0)"><tspan dy="4" style="-webkit-tap-highlight-color: rgba(0, 0, 0, 0);"></tspan></text><text x="0" y="0" text-anchor="middle" font="10px &quot;Arial&quot;" stroke="#000000" fill="#ffffff" style="-webkit-tap-highlight-color: rgba(0, 0, 0, 0); text-anchor: middle; font: bold 10px Arial; cursor: pointer; stroke-linejoin: round; stroke-linecap: round; stroke-opacity: 0.5;" font-weight="bold" font-size="10px" stroke-linejoin="round" stroke-linecap="round" stroke-width="1.5" stroke-opacity="0.5"><tspan dy="4" style="-webkit-tap-highlight-color: rgba(0, 0, 0, 0);"></tspan></text><text x="0" y="0" text-anchor="middle" font="10px &quot;Arial&quot;" stroke="none" fill="#ffffff" style="-webkit-tap-highlight-color: rgba(0, 0, 0, 0); text-anchor: middle; font: bold 10px Arial; cursor: pointer; stroke-linejoin: round; stroke-linecap: round;" font-weight="bold" font-size="10px" stroke-linejoin="round" stroke-linecap="round" transform="matrix(1,0,0,1,0,0)"><tspan dy="4" style="-webkit-tap-highlight-color: rgba(0, 0, 0, 0);"></tspan></text><text x="0" y="0" text-anchor="middle" font="10px &quot;Arial&quot;" stroke="#000000" fill="#ffffff" style="-webkit-tap-highlight-color: rgba(0, 0, 0, 0); text-anchor: middle; font: bold 10px Arial; cursor: pointer; stroke-linejoin: round; stroke-linecap: round; stroke-opacity: 0.5;" font-weight="bold" font-size="10px" stroke-linejoin="round" stroke-linecap="round" stroke-width="1.5" stroke-opacity="0.5"><tspan dy="4" style="-webkit-tap-highlight-color: rgba(0, 0, 0, 0);"></tspan></text><text x="0" y="0" text-anchor="middle" font="10px &quot;Arial&quot;" stroke="none" fill="#ffffff" style="-webkit-tap-highlight-color: rgba(0, 0, 0, 0); text-anchor: middle; font: bold 10px Arial; cursor: pointer; stroke-linejoin: round; stroke-linecap: round;" font-weight="bold" font-size="10px" stroke-linejoin="round" stroke-linecap="round" transform="matrix(1,0,0,1,0,0)"><tspan dy="4" style="-webkit-tap-highlight-color: rgba(0, 0, 0, 0);"></tspan></text><text x="0" y="0" text-anchor="middle" font="10px &quot;Arial&quot;" stroke="#000000" fill="#ffffff" style="-webkit-tap-highlight-color: rgba(0, 0, 0, 0); text-anchor: middle; font: bold 10px Arial; cursor: pointer; stroke-linejoin: round; stroke-linecap: round; stroke-opacity: 0.5;" font-weight="bold" font-size="10px" stroke-linejoin="round" stroke-linecap="round" stroke-width="1.5" stroke-opacity="0.5"><tspan dy="4" style="-webkit-tap-highlight-color: rgba(0, 0, 0, 0);"></tspan></text><text x="0" y="0" text-anchor="middle" font="10px &quot;Arial&quot;" stroke="none" fill="#ffffff" style="-webkit-tap-highlight-color: rgba(0, 0, 0, 0); text-anchor: middle; font: bold 10px Arial; cursor: pointer; stroke-linejoin: round; stroke-linecap: round;" font-weight="bold" font-size="10px" stroke-linejoin="round" stroke-linecap="round" transform="matrix(1,0,0,1,0,0)"><tspan dy="4" style="-webkit-tap-highlight-color: rgba(0, 0, 0, 0);"></tspan></text><text x="0" y="0" text-anchor="middle" font="10px &quot;Arial&quot;" stroke="#000000" fill="#ffffff" style="-webkit-tap-highlight-color: rgba(0, 0, 0, 0); text-anchor: middle; font: bold 10px Arial; cursor: pointer; stroke-linejoin: round; stroke-linecap: round; stroke-opacity: 0.5;" font-weight="bold" font-size="10px" stroke-linejoin="round" stroke-linecap="round" stroke-width="1.5" stroke-opacity="0.5"><tspan dy="4" style="-webkit-tap-highlight-color: rgba(0, 0, 0, 0);"></tspan></text><text x="0" y="0" text-anchor="middle" font="10px &quot;Arial&quot;" stroke="none" fill="#ffffff" style="-webkit-tap-highlight-color: rgba(0, 0, 0, 0); text-anchor: middle; font: bold 10px Arial; cursor: pointer; stroke-linejoin: round; stroke-linecap: round;" font-weight="bold" font-size="10px" stroke-linejoin="round" stroke-linecap="round" transform="matrix(1,0,0,1,0,0)"><tspan dy="4" style="-webkit-tap-highlight-color: rgba(0, 0, 0, 0);"></tspan></text><text x="0" y="0" text-anchor="middle" font="10px &quot;Arial&quot;" stroke="#000000" fill="#000000" style="-webkit-tap-highlight-color: rgba(0, 0, 0, 0); text-anchor: middle; font: bold 10px Arial; cursor: pointer; stroke-linejoin: round; stroke-linecap: round; stroke-opacity: 0.5;" font-weight="bold" font-size="10px" stroke-linejoin="round" stroke-linecap="round" stroke-width="1.5" stroke-opacity="0.5"><tspan dy="4" style="-webkit-tap-highlight-color: rgba(0, 0, 0, 0);"></tspan></text><text x="0" y="0" text-anchor="middle" font="10px &quot;Arial&quot;" stroke="none" fill="#ffffff" style="-webkit-tap-highlight-color: rgba(0, 0, 0, 0); text-anchor: middle; font: bold 10px Arial; cursor: pointer; stroke-linejoin: round; stroke-linecap: round;" font-weight="bold" font-size="10px" stroke-linejoin="round" stroke-linecap="round" transform="matrix(1,0,0,1,0,0)"><tspan dy="4" style="-webkit-tap-highlight-color: rgba(0, 0, 0, 0);"></tspan></text><text x="0" y="0" text-anchor="middle" font="10px &quot;Arial&quot;" stroke="#000000" fill="#ffffff" style="-webkit-tap-highlight-color: rgba(0, 0, 0, 0); text-anchor: middle; font: bold 10px Arial; cursor: pointer; stroke-linejoin: round; stroke-linecap: round; stroke-opacity: 0.5;" font-weight="bold" font-size="10px" stroke-linejoin="round" stroke-linecap="round" stroke-width="1.5" stroke-opacity="0.5"><tspan dy="4" style="-webkit-tap-highlight-color: rgba(0, 0, 0, 0);"></tspan></text><text x="0" y="0" text-anchor="middle" font="10px &quot;Arial&quot;" stroke="none" fill="#ffffff" style="-webkit-tap-highlight-color: rgba(0, 0, 0, 0); text-anchor: middle; font: bold 10px Arial; cursor: pointer; stroke-linejoin: round; stroke-linecap: round;" font-weight="bold" font-size="10px" stroke-linejoin="round" stroke-linecap="round" transform="matrix(1,0,0,1,0,0)"><tspan dy="4" style="-webkit-tap-highlight-color: rgba(0, 0, 0, 0);"></tspan></text><text x="0" y="0" text-anchor="middle" font="10px &quot;Arial&quot;" stroke="#000000" fill="#ffffff" style="-webkit-tap-highlight-color: rgba(0, 0, 0, 0); text-anchor: middle; font: bold 10px Arial; cursor: pointer; stroke-linejoin: round; stroke-linecap: round; stroke-opacity: 0.5;" font-weight="bold" font-size="10px" stroke-linejoin="round" stroke-linecap="round" stroke-width="1.5" stroke-opacity="0.5"><tspan dy="4" style="-webkit-tap-highlight-color: rgba(0, 0, 0, 0);"></tspan></text><text x="0" y="0" text-anchor="middle" font="10px &quot;Arial&quot;" stroke="none" fill="#ffffff" style="-webkit-tap-highlight-color: rgba(0, 0, 0, 0); text-anchor: middle; font: bold 10px Arial; cursor: pointer; stroke-linejoin: round; stroke-linecap: round;" font-weight="bold" font-size="10px" stroke-linejoin="round" stroke-linecap="round" transform="matrix(1,0,0,1,0,0)"><tspan dy="4" style="-webkit-tap-highlight-color: rgba(0, 0, 0, 0);"></tspan></text><text x="0" y="0" text-anchor="middle" font="10px &quot;Arial&quot;" stroke="#000000" fill="#ffffff" style="-webkit-tap-highlight-color: rgba(0, 0, 0, 0); text-anchor: middle; font: bold 10px Arial; cursor: pointer; stroke-linejoin: round; stroke-linecap: round; stroke-opacity: 0.5;" font-weight="bold" font-size="10px" stroke-linejoin="round" stroke-linecap="round" stroke-width="1.5" stroke-opacity="0.5"><tspan dy="4" style="-webkit-tap-highlight-color: rgba(0, 0, 0, 0);"></tspan></text><text x="0" y="0" text-anchor="middle" font="10px &quot;Arial&quot;" stroke="none" fill="#ffffff" style="-webkit-tap-highlight-color: rgba(0, 0, 0, 0); text-anchor: middle; font: bold 10px Arial; cursor: pointer; stroke-linejoin: round; stroke-linecap: round;" font-weight="bold" font-size="10px" stroke-linejoin="round" stroke-linecap="round" transform="matrix(1,0,0,1,0,0)"><tspan dy="4" style="-webkit-tap-highlight-color: rgba(0, 0, 0, 0);"></tspan></text><text x="0" y="0" text-anchor="middle" font="10px &quot;Arial&quot;" stroke="#000000" fill="#ffffff" style="-webkit-tap-highlight-color: rgba(0, 0, 0, 0); text-anchor: middle; font: bold 10px Arial; cursor: pointer; stroke-linejoin: round; stroke-linecap: round; stroke-opacity: 0.5;" font-weight="bold" font-size="10px" stroke-linejoin="round" stroke-linecap="round" stroke-width="1.5" stroke-opacity="0.5"><tspan dy="4" style="-webkit-tap-highlight-color: rgba(0, 0, 0, 0);"></tspan></text><text x="0" y="0" text-anchor="middle" font="10px &quot;Arial&quot;" stroke="none" fill="#ffffff" style="-webkit-tap-highlight-color: rgba(0, 0, 0, 0); text-anchor: middle; font: bold 10px Arial; cursor: pointer; stroke-linejoin: round; stroke-linecap: round;" font-weight="bold" font-size="10px" stroke-linejoin="round" stroke-linecap="round" transform="matrix(1,0,0,1,0,0)"><tspan dy="4" style="-webkit-tap-highlight-color: rgba(0, 0, 0, 0);"></tspan></text></g><g></g></g></g></svg>